<mxfile host="app.diagrams.net" modified="2024-04-03T07:33:21.193Z" agent="Mozilla/5.0 (Windows NT 10.0; Win64; x64) AppleWebKit/537.36 (KHTML, like Gecko) Chrome/119.0.0.0 Safari/537.36" version="24.2.1" etag="xH40ISpTDIQcnQ459Kby" type="github">
  <diagram name="Trang-1" id="FL7vX7Lvg4Q8Lb1DLLr9">
    <mxGraphModel>
      <root>
        <mxCell id="0" />
        <mxCell id="1" parent="0" />
      </root>
    </mxGraphModel>
  </diagram>
</mxfile>
